<svg viewBox="0 0 128 128" xmlns="http://www.w3.org/2000/svg" role="img" aria-label="Fervon">
  <defs>
    <linearGradient id="fav-forge" x1="0" y1="1" x2="0" y2="0">
      <stop offset="0" stop-color="#B5300A"/>
      <stop offset="0.45" stop-color="#E0480F"/>
      <stop offset="0.75" stop-color="#FF6A00"/>
      <stop offset="1" stop-color="#FFB02E"/>
    </linearGradient>
    <linearGradient id="fav-spark" x1="0" y1="0" x2="1" y2="0">
      <stop offset="0" stop-color="#FF6A00"/>
      <stop offset="1" stop-color="#FFD37A"/>
    </linearGradient>
  </defs>
  <rect x="0" y="0" width="128" height="128" rx="28" fill="#0E0B0A"/>
  <g transform="translate(20.13,12.75) scale(0.82)" stroke="none">
    <path d="M44 4 C30 4 22 13 22 30 L22 40 L8 40 L8 56 L22 56 L22 116 C22 119 24 121 27 121 L37 121 C40 121 42 119 42 116 L42 56 L60 56 L60 40 L42 40 L42 30 C42 23 45 20 52 20 L64 20 L64 4 Z" fill="url(#fav-forge)"/>
    <path d="M58 40 L96 40 C92 47 86 50 78 50 L60 50 L58 56 L60 56 L78 56 C88 56 96 49 99 39 C100 36 99 33 96 33 L60 33 L58 40 Z" fill="url(#fav-spark)"/>
  </g>
</svg>
